<svg xmlns="http://www.w3.org/2000/svg" xmlns:vectornator="http://vectornator.io" xmlns:xlink="http://www.w3.org/1999/xlink" fill-rule="evenodd" stroke-linecap="round" stroke-linejoin="round" clip-rule="evenodd" width="473" height="589" viewBox="0 0 473 589">
  <defs/>
  <defs>
    <filter id="a" color-interpolation-filters="sRGB">
      <feColorMatrix result="color1" type="hueRotate" values="330"/>
      <feColorMatrix result="color2" type="saturate" values=".0209581"/>
    </filter>
    <path id="b" d="M0 0h472.646v589H0V0z"/>
  </defs>
  <g filter="url(#a)" vectornator:layerName="Untitled">
    <path fill="#d1d3d3" d="M438.26 269.704l-6.853 10.654 41.238 14.952v-4.204l-26.622-23.918-7.763 2.516z"/>
    <path fill="#8a8c8c" d="M425.612 299.312l10.708-.495 20.412-1.499 15.914-2.007-41.238-14.952-12.301-4.457 6.505 23.41z"/>
    <path fill="#aba89e" d="M438.26 269.704l-6.853 10.654-12.3-4.457 7.321-2.369 11.832-3.828z"/>
    <path fill="#8a8c8c" d="M425.612 299.312h-64.408l36.835-16.825 27.573 16.825z"/>
    <path fill="#99999a" d="M426.428 273.532l-13.051-9.275-3.974-2.825 27.813-21.75 8.808 27.506-7.764 2.516-11.832 3.828z"/>
    <path fill="#ffa400" d="M411.397 268.192l-3.614 5.046-5.394-8.62.067-.067 8.941 3.641z"/>
    <path fill="#ff5000" d="M409.403 261.433l3.975 2.824-1.981 3.935-8.941-3.64 4.176-3.748 2.771.629z"/>
    <path fill="#8a8c8c" d="M437.216 239.682l-27.813 21.75-9.718-41.573 37.33 19.207.201.616z"/>
    <path fill="#3e4543" d="M407.783 273.238l3.614-5.046 1.981-3.935 13.051 9.275-7.322 2.37-11.967-1.767.643-.897z"/>
    <path fill="#80622d" d="M402.389 264.618l5.394 8.62-.643.897-10.962-3.935 6.211-5.582z"/>
    <path fill="#d3ccbd" d="M407.14 274.135l11.967 1.767-20.921 6.518-.495-.134-.014-.013-38.829-10.815 37.33-1.258 10.962 3.935z"/>
    <path fill="#ef7622" d="M402.455 264.552l-.066.067-3.467-5.555 7.71 1.74-4.177 3.748z"/>
    <path fill="#d49000" d="M398.922 259.064l3.467 5.555-6.211 5.581-.749-7.643 3.493-3.493z"/>
    <path fill="#d8d1ca" d="M399.685 219.859l9.718 41.574-2.771-.63-7.71-1.739-6.933-1.58 6.652-37.558 1.044-.067z"/>
    <path fill="#bcb9af" d="M398.641 219.926l-6.652 37.558-17.213-36.125 23.865-1.433z"/>
    <path fill="#d8d1ca" d="M398.186 282.42l20.921-6.519 6.505 23.411-27.573-16.825.147-.067z"/>
    <path fill="#333e48" d="M398.038 282.487l-36.835 16.825h-.83l-2.783-27.814 1.258-.04 38.829 10.815.013.013.348.201z"/>
    <path fill="#d1d3d3" d="M360.373 299.312l32.472 35.188-6.358 7.148-.321 1.299-.214.147-54.008-28.563 28.429-15.219z"/>
    <path fill="#7d868c" d="M374.776 221.359l17.213 36.125-34.372 13.479 17.159-49.604z"/>
    <path fill="#555759" d="M386.113 343.174l-6.344 25.592-11.203 37.625-39.164-23.183 56.551-40.114.16.08z"/>
    <path fill="#99999a" d="M385.952 343.094l-56.551 40.114 2.543-68.677 54.008 28.563z"/>
    <path fill="#5c6670" d="M356.399 270.775l-32.164-5.086 18.979-18.98 5.435-5.434 26.127-19.917-17.159 49.604-1.218-.187z"/>
    <path fill="#d1d3d3" d="M368.566 406.391l-1.098 1.593h-.013l-72.225 1.11h-.014l-.133-.28-.442-.938 34.761-24.668 39.164 23.183z"/>
    <path fill="#7d868c" d="M367.454 407.984l-24.307 35.041-23.919 13.412-23.999-47.343 72.225-1.11z"/>
    <path fill="#333e48" d="M361.203 299.312h64.408l-12.716 11.217-8.7 11.203-11.35 12.768-32.472-35.188h.83z"/>
    <path fill="#bcb9af" d="M357.59 271.498l2.783 27.813-28.429 15.219-7.709-48.841 32.164 5.086 1.15.321.041.402z"/>
    <path fill="#383a35" d="M357.59 271.498l1.258-.04-1.298-.361.04.401z"/>
    <path fill="#333e48" d="M391.989 257.484l6.934 1.58-3.494 3.493.749 7.643-37.33 1.258-1.298-.362-1.151-.321 1.218.188 34.372-13.479z"/>
    <g vectornator:mask="#Mask">
      <clipPath id="c">
        <use fill="none" overflow="visible" xlink:href="#b"/>
      </clipPath>
      <g clip-path="url(#c)">
        <path fill="#333e48" d="M368.07 495.066c.496 1.499-.508 6.705-.508 6.705l-6.197 7.696 1.699-6.705 2.503-5.502-2.998-7.696-14.415-6.21 3.707 7.201 4.002 11.216-4.511 3.494-6.705 8.713 2.008-8.205 4.697-6.01s-2.703-5.701-3.198-7.709c-.509-1.995-9.209-9.209-9.209-9.209l-2.503-4.497 13.746-1.928h.014l19.367 5.435v10.199l-2.503-6.706-8.713-2.998 7.214 5.702s1.995 5.501 2.503 7.014"/>
        <path fill="#7f7f73" d="M350.188 476.42l-13.746 1.928-22.915-14.416 32.124 11.217 4.537 1.271z"/>
        <path fill="#4f5858" d="M336.937 129.485l7.71 26.127-29.755 83.736-10.079 28.349 3.762-46.592 2.088-25.887 1.981-24.507.883.87-.335-1.807 23.745-40.289z"/>
        <path fill="#4b4f54" d="M344.647 155.612l-7.71 63.752-12.702 46.325-9.343-26.342 29.755-83.735z"/>
        <path fill="#3e4543" d="M336.937 219.364l6.277 27.345-18.979 18.98 12.702-46.325z"/>
        <path fill="#7d868c" d="M336.937 129.485l-23.745 40.289-5.581-30.063v-.013l.656-37.384c6.759 6.438 11.069 10.694 11.471 11.471 2.194 4.202 17.199 15.7 17.199 15.7"/>
        <path fill="#d3ccbd" d="M336.442 478.348l-14.201-3.708-19.422-8.499 10.708-2.209 22.915 14.416z"/>
        <path fill="#5c6670" d="M331.945 314.53l-2.543 68.678-50.93-9.236-10.775-22.621 63.592-36.446.656-.375zM330.927 314.289l.361.616-63.591 36.446 31.842-37.41.777-.91 30.611 1.258z"/>
        <path fill="#99999a" d="M329.402 383.208l-34.761 24.668-16.169-33.903 50.93 9.235z"/>
        <path fill="#707c7c" d="M320.728 495.561l2.008-9.504 13.706-7.709 2.503 4.497-13.211 5.715-1.499 5.997 2.503 7.214-6.01-6.21z"/>
        <path fill="#5c6670" d="M314.892 239.347l9.343 26.342-19.422 2.007 10.079-28.349z"/>
        <path fill="#3e4543" d="M302.337 292.592l2.476-24.896 19.421-2.007-23.785 46.003 1.888-19.1z"/>
        <path fill="#707c7c" d="M319.229 456.437l-5.702 7.495-10.708 2.209-13.291-6.746 29.701-2.958z"/>
        <path fill="#333e48" d="M311.533 525.676l-5.716-10.199-8.004-6.505 21.871 4.738 3.547 3.266s4.002 5.702 4.511 8.205c.495 2.503 1.499 8.205 1.499 10.213 0 1.994-8.004 8.205-8.004 8.205l4.002-5.702-2.503-12.221-10.213-7.201s5.006 12.917 5.501 14.911c.509 2.008-1.994 6.706-4.002 7.215-1.927.481-7.816 5.661-8.191 5.982l7.696-11.189-1.994-9.718z"/>
        <path fill="#707c7c" d="M319.684 513.71l-21.871-4.738-1.325-12.489.121.081 6.705 3.708 10.708 8.205 5.662 5.233z"/>
        <path fill="#909c9c" d="M312.644 170.71l-1.981 24.508-111.416-72.934-29.928-23.9188 89.852 35.7908 52.683 35.791.026.013.764.75z"/>
        <path fill="#7d868c" d="M311.854 169.947l-52.683-35.791-59.228-40.248-23.115-27.667-9.704-12.207v-8.205l5.701-4.002 24.909 16.41 114.12 111.71zM310.662 195.218l-2.088 25.886-98.62-67.433-1.003-.267-32.124-23.919-1.499-11.699 4.698-3.506 19.22 8.004 111.416 72.934z"/>
        <path fill="#909c9c" d="M308.267 102.314l-.656 37.384v.013l-.027 1.753L199.568 24.2927l108.699 78.0213z"/>
        <path fill="#5c6670" d="M308.267 102.314L199.568 24.2927 188.031 5.20669l3.707-5.2070028 9.008 2.9990028S278.405 73.8707 308.267 102.314"/>
        <path fill="#4f5858" d="M200.238 25.4177l-.669-1.125L307.585 141.464l.026-1.753 5.581 30.062-.548.938-.763-.75-.027-.014L197.735 58.2367l-19.408-27.117-2.008-9.704 7.214-6.01 16.705 10.012z"/>
        <path fill="#4b4f54" d="M304.653 267.603l-83.99-77.365-11.217-11.711-5.782-9.959h.014l104.897 52.536-3.762 46.592-.16-.093z"/>
        <path fill="#3e4543" d="M304.813 267.697l-2.476 24.896-50.554-53.017 52.87 28.028.16.093z"/>
        <path fill="#383a35" d="M304.653 267.603l-52.87-28.028-27.921-28.925-8.7-13.211-.509-8.7 6.01 1.499 83.99 77.365z"/>
        <path fill="#555759" d="M330.927 314.289l-30.611-1.258.133-1.339 23.786-46.003 7.71 48.841-.657.375-.361-.616z"/>
        <path fill="#a3402a" d="M300.316 313.031l-.776.91-1.406-.054 2.182-.856z"/>
        <path fill="#5c6670" d="M300.316 313.031l-2.182.856-88.581-3.413 24.241-54.918 66.522 57.475z"/>
        <path fill="#555759" d="M299.539 313.942l-31.843 37.41-42.496 19.047-2.543-2.329-19.207-2.008-8.205-4.417 53.03-28.201 49.859-19.556 1.405.054z"/>
        <path fill="#c3c6c8" d="M298.134 313.888l-49.858 19.556-38.723-22.955v-.014l88.581 3.413z"/>
        <path fill="#3e4543" d="M294.614 503.27l-12.836-16.182 14.71 9.396 1.325 12.488-5.702 9.008-1.004 8.7 5.502 10.213-8.005-6.01-2.194-11.698 3.198-6.706 5.006-9.209z"/>
        <path fill="#333e48" d="M296.475 496.377l.013.106-14.71-9.395-1.379-13.947 16.076 23.236zM289.019 459.421l-.589-.106 6.786-50.221h.014l23.999 47.343-29.701 2.958-.415.04-.08-.014h-.014z"/>
        <path fill="#a0a1a2" d="M295.216 409.094l-6.786 50.221-82.986-14.59 89.772-35.631z"/>
        <path fill="#8a8c8c" d="M295.216 409.094l-89.772 35.631 48.855-57.822 40.917 22.191z"/>
        <path fill="#5c6670" d="M295.216 409.094l-40.917-22.191 24.173-12.93 16.169 33.903-.028.014.469.924.134.28zM289.113 459.435l.415-.04 13.291 6.746-22.42 7 8.714-13.706z"/>
        <path fill="#d3ccbd" d="M289.113 459.435l-8.714 13.706 1.379 13.947-1.379-1.74-10.707-10.199 19.421-15.714z"/>
        <path fill="#7d868c" d="M289.113 459.435l-19.421 15.714-6.197 1.7-13.452-17.254 38.375-.174h.615l.08.014z"/>
        <path fill="#5c6670" d="M288.43 459.315l-.013.106-38.375.174h-.04l-38.669.161h-.013l-5.876-15.031 82.986 14.59z"/>
        <path fill="#333e48" d="M267.697 351.352l10.775 22.621-24.172 12.93 13.397-35.551z"/>
        <path fill="#555759" d="M252.158 478.535l11.337-1.687s-30.129 70.725-36.474 86.225l25.137-84.538z"/>
        <path fill="#707c7c" d="M199.943 93.9079l59.229 40.2481-89.853-35.7911-4.203-9.704 2.008-7h7.201l26.421 13.211-.803-.964z"/>
        <path fill="#333e48" d="M254.299 386.902l-48.855 57.822 9.209-38.829 10.346-34.814.255.08 29.045 15.741z"/>
        <path fill="#7d868c" d="M252.158 478.535l-25.137 84.538c-.696 1.713-1.097 2.744-1.151 2.945-.509 1.995-10.708 11.204-10.708 11.204l-10.212.495 47.208-99.182z"/>
        <path fill="#5c6670" d="M250.002 459.595h.04l13.452 17.254-11.337 1.686-22.299 3.32 20.144-22.26z"/>
        <path fill="#8a8c8c" d="M250.002 459.595l-20.144 22.26-6.545-4.645-7.161-5.073-4.832-12.367.013-.014 38.669-.161z"/>
        <path fill="#7d868c" d="M248.276 333.444l-53.031 28.201h-.013l-1.995-1.084-7.401-8.311 23.717-41.761 38.723 22.955z"/>
        <path fill="#bcb9af" d="M227.864 250.43l5.93 5.126-54.329-4.43-20.359-1.66-1.057-.281-47.008-47.703 91.526 27.88 25.297 21.068z"/>
        <path fill="#5c6670" d="M229.858 481.855l-27.211 98.512c-2.182 2.41-5.354 5.568-6.907 5.568-2.503 0-15.205 2.489-15.205 2.489l-5.421.175 54.744-106.744z"/>
        <path fill="#555759" d="M229.858 481.855l-54.744 106.744-11.886.402-9.825-1.072-1.913-2.89 71.823-107.829 6.545 4.645z"/>
        <path fill="#5c6670" d="M222.55 210.209l5.313 40.222-25.297-21.068-52.629-43.836 72.613 24.682z"/>
        <path fill="#8a8a8d" d="M225.254 371.161l-.254-.08.2-.683 42.497-19.047-13.398 35.551-29.045-15.741z"/>
        <path fill="#555759" d="M223.862 210.651l27.921 28.925 50.555 53.017-1.888 19.1-.134 1.339-66.522-57.475-5.93-5.126-5.314-40.222 1.312.442z"/>
        <path fill="#8a8c8c" d="M223.313 477.21L151.49 585.038l-8.794.897-11.203-4.216-4.002-9.504 95.822-95.005z"/>
        <path fill="#5c6670" d="M223.313 477.21l-95.822 95.005L211.32 459.77l4.832 12.367 7.161 5.073z"/>
        <path fill="#7d868c" d="M211.333 459.756l-.013.014v-.014h.013z"/>
        <path fill="#99999a" d="M211.32 459.756v.014l-100.949 96.102 38.535-46.405 56.538-64.742 5.876 15.031z"/>
        <path fill="#7d868c" d="M211.32 459.77l-83.83 112.445-9.703 1.499-9.209-5.701 1.004-11.203.762-.924.027-.013L211.32 459.77zM233.793 255.557l-24.24 54.918h-.013l-.362-.214-29.714-59.135 54.329 4.431z"/>
        <path fill="#99999a" d="M209.54 310.475h.013v.014l-23.718 41.76-.803-.897-15.713.509-6.197-4.002-6.707-6.706-5.005-7.709 1.378-.549 56.752-22.42z"/>
        <path fill="#5c6670" d="M209.178 310.261l.361.214-56.752 22.42 15.661-46.78 40.73 24.146z"/>
        <path fill="#949a90" d="M204.949 577.717s-.964 1.178-2.302 2.649l27.211-98.511 22.299-3.32-47.208 99.182z"/>
        <path fill="#3e4543" d="M202.941 167.324l-.495-14.416 6.505.496 1.004.267 98.619 67.433-104.897-52.535h-.013l-.723-1.245z"/>
        <path fill="#d1d3d3" d="M149.937 185.527l52.629 43.835-91.525-27.88-74.9157-46.365 113.7977 30.41h.014zM168.449 286.115H86.1585s-28.617-15.915-29.126-17.427c-.495-1.499-4.992-11.203-4.992-11.203l.991-6.505 80.8975 18.297 1.432.321 33.088 16.517z"/>
        <path fill="#99999a" d="M168.449 286.115l-15.661 46.78-1.378.549-12.207-1.004-9.704-3.494-6.211-6.719-2.302-9.369 46.178-26.743h1.285z"/>
        <path fill="#5c6670" d="M167.163 286.115l-46.178 26.743-.2-.83-25.9136-3.507-6.21-9.704-2.503-12.702h81.0046z"/>
        <path fill="#333e48" d="M111.041 201.482l47.007 47.704-1.739-.469-120.5842-61.115-17.521-14.282-14.202-18.712-3.505996-11.404 2.502996-5.501 12.702 7.201 20.425 10.213 74.9152 46.365z"/>
        <path fill="#5c6670" d="M133.929 269.276l-80.898-18.297-22.915-6.706 123.101 3.628 3.091.816 1.74.469 1.058.28-25.177 19.81z"/>
        <path fill="#99999a" d="M133.929 269.276l25.177-19.81 20.358 1.66 29.715 59.135-40.73-24.147-33.088-16.517-1.432-.321zM149.924 185.527l-113.7984-30.41-26.422-32.833-1.004-8.5 3.507-4.202 41.828 31.614s54.5434 26.623 57.5414 28.631c2.999 1.994 25.124 11.203 25.124 11.203l13.224 4.497zM153.217 247.901L38.9766 217.464l1.151.187-28.416-14.71-8.713-12.702-2.9989967-10.708 4.0029867-4.203L37.1156 188.74l-1.391-1.138 120.5844 61.115-3.092-.816z"/>
        <path fill="#333e48" d="M38.9632 217.464h.014l114.2388 30.437-123.0998-3.627-11.404-11.699-4.002-13.719 1.499-5.207 22.754 3.815z"/>
      </g>
    </g>
  </g>
</svg>
