<svg xmlns="http://www.w3.org/2000/svg" data-name="Layer 1" viewBox="0 0 1080 1080">
  <defs>
    <linearGradient id="a" x1="631.64" x2="387.02" y1="404.84" y2="824.19" gradientUnits="userSpaceOnUse">
      <stop offset="0" stop-color="#fff"/>
      <stop offset=".25" stop-color="#e1e1e1"/>
      <stop offset=".54" stop-color="#c6c6c6"/>
      <stop offset=".8" stop-color="#b5b5b5"/>
      <stop offset=".99" stop-color="#afafaf"/>
    </linearGradient>
  </defs>
  <path fill="url(#a)" d="M739.81 563.86c-78.25-142.71-125.6-279.6-140.47-362.31-60 36.49-101.78 54.67-161.73 91.16a1212 1212 0 0 0 113.06 295.68h-216c-5.67-8-11.75-15.85-16.89-24.53-84.44-142.71-123.3-282.08-138.17-364.79-60 36.49-104.08 57.15-164 93.64 22.11 92.77 69.51 243.69 176.22 399.12C297.49 845.73 415.93 938 491.2 987.77c49.41-47.22 88.13-83.74 137.54-131-34.35-20.72-98.32-74.67-150.18-120.9h164.7C737.6 857 852 941.3 917.76 984.8c49.41-47.22 82.35-80.89 131.76-128.1-49.41-31.12-106.14-69.55-153.72-120.79l165.66.37V588.39H756.7c-5.7-8.01-12.04-15.68-16.89-24.53Z"/>
  <path fill="#afafaf" d="M874.7 183.85h189.72v189.72H874.7z"/>
</svg>
