<svg xmlns="http://www.w3.org/2000/svg" viewBox="0 0 256 256">
  <defs/>
  <g fill="none" stroke="#f5a04c" stroke-width="2">
    <path d="M66 72h125c1.4 0 2.5 1.4 2.5 3v104.6c0 1.6-1 3-2.4 3H65.9c-1.3 0-2.4-1.4-2.4-3V75c0-1.7 1-3 2.4-3z"/>
    <path stroke-linecap="round" d="M80.5 62V39"/>
    <path d="M78 32.8a3.6 3.6 0 115 5.1 3.6 3.6 0 01-5-5.1"/>
    <path stroke-linecap="round" d="M112.5 62V39"/>
    <path d="M110 32.8a3.6 3.6 0 115 5.1 3.6 3.6 0 01-5-5.1"/>
    <path stroke-linecap="round" d="M144.5 62V39"/>
    <path d="M142 32.8a3.6 3.6 0 115 5.1 3.6 3.6 0 01-5-5.1"/>
    <path stroke-linecap="round" d="M176.5 62V39"/>
    <path d="M174 32.8a3.6 3.6 0 115 5.1 3.6 3.6 0 01-5-5.1"/>
    <path stroke-linecap="round" d="M80.5 192.6v23.1"/>
    <path d="M83 221.9a3.6 3.6 0 11-5-5.1 3.6 3.6 0 015 5"/>
    <path stroke-linecap="round" d="M112.5 192.6v23.1"/>
    <path d="M115 221.9a3.6 3.6 0 11-5-5.1 3.6 3.6 0 015 5"/>
    <path stroke-linecap="round" d="M144.5 192.6v23.1"/>
    <path d="M147 221.9a3.6 3.6 0 11-5-5.1 3.6 3.6 0 015 5"/>
    <path stroke-linecap="round" d="M176.5 192.6v23.1"/>
    <path d="M179 221.9a3.6 3.6 0 11-5-5.1 3.6 3.6 0 015 5"/>
    <path stroke-linecap="round" d="M53.5 159.3H30.3"/>
    <path d="M24.2 161.9a3.6 3.6 0 115-5.1 3.6 3.6 0 01-5 5"/>
    <path stroke-linecap="round" d="M53.5 127.3H30.3"/>
    <path d="M24.2 129.9a3.6 3.6 0 115-5.1 3.6 3.6 0 01-5 5"/>
    <path stroke-linecap="round" d="M53.5 95.3H30.3"/>
    <path d="M24.2 97.9a3.6 3.6 0 115-5.1 3.6 3.6 0 01-5 5"/>
    <path stroke-linecap="round" d="M203.5 95.3h23.2"/>
    <path d="M232.8 92.8a3.6 3.6 0 11-5 5 3.6 3.6 0 015-5"/>
    <path stroke-linecap="round" d="M203.5 127.3h23.2"/>
    <path d="M232.8 124.8a3.6 3.6 0 11-5 5 3.6 3.6 0 015-5"/>
    <path stroke-linecap="round" d="M203.5 159.3h23.2"/>
    <path d="M232.8 156.8a3.6 3.6 0 11-5 5 3.6 3.6 0 015-5"/>
    <g stroke-linejoin="round">
      <path stroke-linecap="round" d="M132.5 121.3a14.9 14.9 0 1121-21 14.8 14.8 0 01-21 21zm0 0l-33.2 33.2"/>
      <path d="M114 139.7l7.2 7.1-4.3 4.3-7.1-7.1zM106.4 147.4l7.1 7.1-4.2 4.3-7.2-7.2z"/>
    </g>
  </g>
</svg>
