<svg xmlns="http://www.w3.org/2000/svg" viewBox="0 0 256 180" width="512" height="512">
  <defs/>
  <path fill="none" stroke="#dedede" stroke-width="2" d="M203.2 84.9h143.6a3 3 0 013 3v37.6a3 3 0 01-3 3H203.2a3 3 0 01-3-3V87.9a3 3 0 013-3z"/>
  <path fill="#1f1f1f" d="M61.4 49.1c-11.3 0-20.4-1.8-20.4-4s9-3.8 20.4-3.8c11.3 0 20.4 1.7 20.4 3.9s-9.2 3.9-20.4 3.9z"/>
  <path fill="none" stroke="#dedede" stroke-width="2" d="M61.4 49.1c-11.3 0-20.4-1.8-20.4-4s9-3.8 20.4-3.8c11.3 0 20.4 1.7 20.4 3.9s-9.2 3.9-20.4 3.9z"/>
  <path fill="#1f1f1f" d="M61.4 49.1c-11.3 0-20.4-1.8-20.4-4"/>
  <path fill="none" stroke="#dedede" stroke-width="2" d="M61.4 49.1c-11.3 0-20.4-1.8-20.4-4"/>
  <path fill="#1f1f1f" d="M81.8 45.2c0 2.1-9.2 3.9-20.4 3.9"/>
  <path fill="none" stroke="#dedede" stroke-width="2" d="M81.8 45.2c0 2.1-9.2 3.9-20.4 3.9"/>
  <path fill="#1f1f1f" d="M41 45.2v-4h40.8v4"/>
  <path fill="none" stroke="#dedede" stroke-width="2" d="M41 45.2v-4h40.8v4"/>
  <path fill="#1f1f1f" d="M61.4 44.8C50 44.8 41 43.1 41 40.9S50 37 61.4 37c11.3 0 20.4 1.8 20.4 4s-9.2 3.8-20.4 3.8z"/>
  <path fill="none" stroke="#dedede" stroke-width="2" d="M61.4 44.8C50 44.8 41 43.1 41 40.9S50 37 61.4 37c11.3 0 20.4 1.8 20.4 4s-9.2 3.8-20.4 3.8z"/>
  <path fill="#1f1f1f" d="M43.2 46.3c-11 3-20.1 3.6-20.7 1.6-.5-2.1 7.8-6.2 18.7-9 10.9-3.1 20.3-3.7 20.7-1.7.6 2-7.8 6.1-18.7 9z"/>
  <path fill="none" stroke="#dedede" stroke-width="2" d="M43.2 46.3c-11 3-20.1 3.6-20.7 1.6-.5-2.1 7.8-6.2 18.7-9 10.9-3.1 20.3-3.7 20.7-1.7.6 2-7.8 6.1-18.7 9z"/>
  <path fill="#1f1f1f" d="M43.2 46.3c-11 3-20.1 3.6-20.7 1.6"/>
  <path fill="none" stroke="#dedede" stroke-width="2" d="M43.2 46.3c-11 3-20.1 3.6-20.7 1.6"/>
  <path fill="#1f1f1f" d="M61.9 37.3c.6 2-7.8 6.1-18.7 9"/>
  <path fill="none" stroke="#dedede" stroke-width="2" d="M61.9 37.3c.6 2-7.8 6.1-18.7 9"/>
  <path fill="#1f1f1f" d="M22.5 47.9l-1-3.8 39.4-10.6 1 3.8"/>
  <path fill="none" stroke="#dedede" stroke-width="2" d="M22.5 47.9l-1-3.8 39.4-10.6 1 3.8"/>
  <path fill="#1f1f1f" d="M42 42.2c-10.7 3-20 3.7-20.6 1.6-.5-2.1 7.8-6.2 18.7-9 10.9-3 20.2-3.7 20.7-1.6.6 2-7.8 6.1-18.7 9z"/>
  <path fill="none" stroke="#dedede" stroke-width="2" d="M42 42.2c-10.7 3-20 3.7-20.6 1.6-.5-2.1 7.8-6.2 18.7-9 10.9-3 20.2-3.7 20.7-1.6.6 2-7.8 6.1-18.7 9z"/>
  <path fill="none" stroke="#dedede" stroke-width="2" d="M51 80a39.5 39.5 0 110-79 39.5 39.5 0 010 79z"/>
  <path fill="#1f1f1f" d="M60.2 181.6c-11.3 0-20.4-1.7-20.4-3.9s9-3.9 20.4-3.9c11.4 0 20.4 1.8 20.4 4s-9.2 3.8-20.4 3.8z"/>
  <path fill="none" stroke="#dedede" stroke-width="2" d="M60.2 181.6c-11.3 0-20.4-1.7-20.4-3.9s9-3.9 20.4-3.9c11.4 0 20.4 1.8 20.4 4s-9.2 3.8-20.4 3.8z"/>
  <path fill="#1f1f1f" d="M60.2 181.6c-11.3 0-20.4-1.7-20.4-3.9"/>
  <path fill="none" stroke="#dedede" stroke-width="2" d="M60.2 181.6c-11.3 0-20.4-1.7-20.4-3.9"/>
  <path fill="#1f1f1f" d="M80.5 177.7c0 2.2-9 4-20.3 4"/>
  <path fill="none" stroke="#dedede" stroke-width="2" d="M80.5 177.7c0 2.2-9 4-20.3 4"/>
  <path fill="#1f1f1f" d="M39.8 177.7v-3.9h40.7v4"/>
  <path fill="none" stroke="#dedede" stroke-width="2" d="M39.8 177.7v-3.9h40.7v4"/>
  <path fill="#1f1f1f" d="M60.2 177.4c-11.3 0-20.4-1.8-20.4-4s9-3.8 20.4-3.8c11.4 0 20.3 1.6 20.3 3.9s-9.2 3.9-20.4 3.9z"/>
  <path fill="none" stroke="#dedede" stroke-width="2" d="M60.2 177.4c-11.3 0-20.4-1.8-20.4-4s9-3.8 20.4-3.8c11.4 0 20.3 1.6 20.3 3.9s-9.2 3.9-20.4 3.9z"/>
  <path fill="#1f1f1f" d="M60.2 177.2c-11.3 0-20.4-1.7-20.4-3.8 0-2.1 9-4 20.4-4 11.4 0 20.4 1.8 20.4 4s-9.2 3.9-20.4 3.9z"/>
  <path fill="none" stroke="#dedede" stroke-width="2" d="M60.2 177.2c-11.3 0-20.4-1.7-20.4-3.8 0-2.1 9-4 20.4-4 11.4 0 20.4 1.8 20.4 4s-9.2 3.9-20.4 3.9z"/>
  <path fill="#1f1f1f" d="M60.2 177.2c-11.3 0-20.4-1.7-20.4-3.8"/>
  <path fill="none" stroke="#dedede" stroke-width="2" d="M60.2 177.2c-11.3 0-20.4-1.7-20.4-3.8"/>
  <path fill="#1f1f1f" d="M80.5 173.4c0 2.1-9 3.9-20.3 3.9"/>
  <path fill="none" stroke="#dedede" stroke-width="2" d="M80.5 173.4c0 2.1-9 3.9-20.3 3.9"/>
  <path fill="#1f1f1f" d="M39.8 173.4v-4h40.7v4"/>
  <path fill="none" stroke="#dedede" stroke-width="2" d="M39.8 173.4v-4h40.7v4"/>
  <path fill="#1f1f1f" d="M60.2 173c-11.3 0-20.4-1.7-20.4-3.9s9-3.9 20.4-3.9c11.4 0 20.4 1.8 20.4 4s-9.2 3.9-20.4 3.9z"/>
  <path fill="none" stroke="#dedede" stroke-width="2" d="M60.2 173c-11.3 0-20.4-1.7-20.4-3.9s9-3.9 20.4-3.9c11.4 0 20.4 1.8 20.4 4s-9.2 3.9-20.4 3.9z"/>
  <path fill="#1f1f1f" d="M35.5 174.2c-9.8 5.7-18.6 8.7-19.7 6.9-1-1.9 6-8 15.8-13.6 9.7-5.6 18.5-8.7 19.6-6.8 1 1.8-6 8-15.7 13.5z"/>
  <path fill="none" stroke="#dedede" stroke-width="2" d="M35.5 174.2c-9.8 5.7-18.6 8.7-19.7 6.9-1-1.9 6-8 15.8-13.6 9.7-5.6 18.5-8.7 19.6-6.8 1 1.8-6 8-15.7 13.5z"/>
  <path fill="#1f1f1f" d="M35.5 174.2c-9.8 5.7-18.6 8.7-19.7 6.9"/>
  <path fill="none" stroke="#dedede" stroke-width="2" d="M35.5 174.2c-9.8 5.7-18.6 8.7-19.7 6.9"/>
  <path fill="#1f1f1f" d="M51.2 160.7c1 1.8-6 8-15.7 13.5"/>
  <path fill="none" stroke="#dedede" stroke-width="2" d="M51.2 160.7c1 1.8-6 8-15.7 13.5"/>
  <path fill="#1f1f1f" d="M15.8 181.1l-2-3.4 35.5-20.5 2 3.4"/>
  <path fill="none" stroke="#dedede" stroke-width="2" d="M15.8 181.1l-2-3.4 35.5-20.5 2 3.4"/>
  <path fill="#1f1f1f" d="M33.3 170.6c-9.7 5.6-18.5 8.7-19.6 6.8-1-1.9 6-8 15.7-13.6 9.8-5.6 18.6-8.7 19.7-6.8 1 1.9-6 8-15.8 13.6z"/>
  <path fill="none" stroke="#dedede" stroke-width="2" d="M33.3 170.6c-9.7 5.6-18.5 8.7-19.6 6.8-1-1.9 6-8 15.7-13.6 9.8-5.6 18.6-8.7 19.7-6.8 1 1.9-6 8-15.8 13.6z"/>
  <path fill="none" stroke="#dedede" stroke-width="2" d="M46.8 212.7a43.7 43.7 0 110-87.3 43.7 43.7 0 010 87.3z"/>
  <path fill="none" stroke="#dedede" stroke-linecap="round" stroke-width="2" d="M101.8 66.5L156 97.8"/>
  <path fill="none" stroke="#dedede" stroke-width="2" d="M95.2 65.6a3.6 3.6 0 117-1.9 3.6 3.6 0 01-7 1.9"/>
  <path fill="#1f1f1f" d="M180.5 122.7a18.5 18.5 0 11-18.4-32 18.5 18.5 0 0118.5 32z"/>
  <g fill="none" stroke="#dedede" stroke-width="2">
    <path d="M180.5 122.7a18.5 18.5 0 11-18.4-32 18.5 18.5 0 0118.5 32z"/>
    <path stroke-dasharray="4 4" stroke-linecap="round" d="M101.9 143.6l15.3-8"/>
    <path d="M97.7 148.7a3.6 3.6 0 112-6.9 3.6 3.6 0 01-2 6.9"/>
    <path stroke-linecap="round" stroke-linejoin="round" d="M179.3 101.2l-11 11-5-5"/>
    <path stroke-linecap="round" d="M136.2 123.8l-11.7 11.8m-.1-11.8l11.8 11.8"/>
  </g>
</svg>
