<svg xmlns="http://www.w3.org/2000/svg" viewBox="0 0 60 92" width="512" height="512">
  <defs/>
  <path fill="#dedede" d="M34 6.8l-2.3 9.6A45.9 45.9 0 0146.9 0a72.3 72.3 0 00-11.3 16A32.2 32.2 0 0152.2 4.3a112.6 112.6 0 00-20.8 24.4l-4.2-1.8A53 53 0 0134 6.8z"/>
  <path fill="#dedede" d="M30.9 28.3l2.9 1.5c-.3 1.9 0 6.1 2 7.1A56.3 56.3 0 0155 53.4C66 73.3 47.4 91.8 31 90c8.8-6.5 11.4-19.9 8-34.6a52.3 52.3 0 00-7-16.8c-1.6-2.7-1-6.3-1.2-10.3zm-3.2 9.5c-.6 3.1-1.3 8.7-4 10.8L20.2 51c-5 3.3-9.7 6.4-12 14.3-.4 1.7 0 3.5.4 5.2a35 35 0 007.3 13.2l.5.6c2.2 2.6 2.9 3.4 11.3 5.3l-.2.9c-5.1-1.3-9.2-2.6-12-5.6l-.4-.5a35.5 35.5 0 01-7.5-13.7c-.5-2-1-3.6-.3-5.7 2.3-8.2 7.3-11.5 12.3-14.9 1-.7 2.5-1.4 3.6-2.3 2.3-1.5 3.4-6.2 4.5-10z"/>
  <path fill="#dedede" d="M29.9 50.8c0 3.5-.3 5.3.6 7.8.5 1.5 2.4 3.5 2.9 5.5.7 2.6 1.5 5.5 1.5 7.3 0 2-.1 5.8-1 9.8-.7 3.3-2.2 6.2-4.8 7.8-2.7-.5-5.8-1.5-7.6-3.1a21.2 21.2 0 01-7.1-12.8c-.3-3.7 3-9.2 7.9-11.9 4-2.4 5-5 5.9-9.4-1.2 3.8-2.4 6.9-6.3 9-5.7 3-8.6 7.9-8.3 12.7.4 6.1 2.8 10.2 7.6 13.5 2 1.4 5.8 2.9 8.2 3.3V90c1.8-.3 4-3.3 5.3-7.2 1-3.6 1.4-8.1 1.3-11-.1-1.7-.8-5.3-2.2-8.6-.7-1.8-2-3.6-2.6-4.9-1-1.5-1-4.3-1.3-7.5z"/>
  <path fill="#dedede" d="M29.3 64.5c0 2.4 1 5.4 1.4 8.5.3 2.3.2 4.6 0 6.6 0 2.3-.7 6.5-1.8 8.6-1-.5-1.4-1-2.1-1.8-.8-1.1-1.4-2.3-2-3.6-.3-1-.8-2.2-1-3.5-.3-2-.2-5.2 2-8.4 1.9-2.6 2.3-2.8 2.9-5.7-.8 2.6-1.4 2.9-3.3 5.1-2.1 2.4-2.4 6-2.4 8.9 0 1.2.5 2.6 1 3.8.5 1.3 1 2.7 1.7 3.7 1 1.6 2.5 2.6 3.2 2.7v-.1a9.7 9.7 0 002.4-4.4c.3-1.8.4-3.5.6-5.6.2-1.8 0-4.1-.4-6.5-.6-3-1.7-6.1-2.2-8.3z"/>
  <path fill="#dedede" d="M29.7 35c0 3.5.3 10 1.3 12.6.3.9 2.8 4.7 4.5 9.4 1.2 3.2 1.5 6.2 1.7 7.1.8 3.8-.2 10.3-1.5 16.4-.7 3.3-3 7.4-5.6 9l-.5.9c1.5-.1 5-3.6 6.4-8.1 2.2-7.5 3-11 2-19.4-.1-.8-.5-3.6-1.8-6.5-2-4.5-4.6-8.8-5-9.7-.6-1.4-1.4-7.6-1.5-11.7z"/>
  <path fill="#dedede" d="M30.9 28.6a33 33 0 00.4 9.1c.7 2.9 4.5 7.1 6 11.9 3 9.2 2.3 21.2.2 30.5-.8 3.3-4.6 8.1-8.5 9.6l2.8.7c1.5-.1 5.5-3.8 7-8 2.6-6.7 3-14.6 2-23 0-.8-1.3-8-2.6-11-1.8-4.5-4.7-7.7-5.7-10.5-.8-2.1-1.1-7.7-.6-8.8z"/>
  <path fill="#dedede" d="M50.9 46.3a56 56 0 00-10.3-6.9c-1.7-.9-7-5-5.1-10.8l-13.1-5.4-1 .7c4.5 7.9 2.2 12.1 0 13.5-4.4 3-10.8 6.8-14 10.1A23.6 23.6 0 00.3 67.6 25.1 25.1 0 0018 89.4c4.3 1.4 8.3 1.6 12.7 1.6 7 0 14.5-1.9 19.8-6.3 5.7-4.7 9-11.8 9-19.1a26 26 0 00-8.6-19.3zm-2 36.9c-4.8 4-13.6 6.8-18.3 6.6a38.6 38.6 0 01-14.8-3.3A24.3 24.3 0 012.3 67.7c-.7-13.7 5.9-17.6 12-22.6 3.4-2.8 8.2-4.2 10.9-9.2.5-1.1.8-3.5.2-6a32 32 0 00-2-4.6l9.8 4.3c-1.2 4.5 2.5 9.2 5.5 10.9A71 71 0 0149.3 48 23.2 23.2 0 0157 65.6c0 6.7-2.8 13.3-8 17.6z"/>
</svg>
