<svg xmlns="http://www.w3.org/2000/svg" viewBox="0 0 256 162" width="512" height="512">
  <defs/>
  <path fill="#1f1f1f" stroke="#dedede" stroke-width="2" d="M190.5 60.4H178a79.2 79.2 0 10-76.6 99h89a49.5 49.5 0 100-99z"/>
  <path fill="#dedede" d="M37.4 159.4a36.4 36.4 0 110-72.8 36.4 36.4 0 010 72.8z"/>
  <g fill="#1f1f1f" stroke="#dedede" stroke-width="2">
    <path d="M37.4 159.4a36.4 36.4 0 110-72.8 36.4 36.4 0 010 72.8z"/>
    <path d="M24.4 121.1h26c2 0 3.8 1.7 3.8 3.8v13c0 2-1.7 3.7-3.8 3.7h-26c-2 0-3.7-1.7-3.7-3.7v-13c0-2 1.7-3.8 3.7-3.8zm3.7 0v-7.4a9.3 9.3 0 0118.6 0v7.4"/>
  </g>
  <path fill="none" d="M120.4 159.4a36.4 36.4 0 110-72.8 36.4 36.4 0 010 72.8z"/>
  <path fill="none" stroke="#dedede" stroke-width="2" d="M120.4 159.4a36.4 36.4 0 110-72.8 36.4 36.4 0 010 72.8z"/>
  <path fill="none" stroke="#dedede" stroke-width="2" d="M130.4 133a17 17 0 01-10 3.5c-11.8 0-18.6-13.5-18.6-13.5 2.1-4 5-7.3 8.6-10m6.4-3.1c1.2-.3 2.4-.4 3.6-.4 11.8 0 18.6 13.5 18.6 13.5-1 2-2.3 3.7-3.7 5.4m-11.3-1.8a5 5 0 11-7.2-7.2m-15-15l37.2 37.3"/>
</svg>
