<svg xmlns="http://www.w3.org/2000/svg" id="Ebene_1" x="0" y="0" version="1.1" viewBox="0 0 256 256" xml:space="preserve">
  <defs/>
  <style>
    .st1{display:inline}.st2,.st3{fill:none;stroke:#aaa;stroke-width:2}.st3{display:inline}.st4{fill:#aaa}.st5{fill:none;stroke:#f5a04c;stroke-width:2;stroke-miterlimit:10}.st6{fill:#f5a04c}
  </style>
  <path d="M11.6 81.3l77.1 34.9L45.8 134M41.1 136l-5 2.2" class="st5"/>
  <circle cx="36.1" cy="138.2" r="1" class="st6"/>
  <path d="M243.4 181L178 151.4l42.9-17.8M225.6 131.6l4.9-2.2" class="st5"/>
  <circle cx="230.6" cy="129.4" r="1" class="st6"/>
  <path d="M171.2 132.2a23.5 23.5 0 00-13.7-9.4c4.1-1.9 7.5-4.7 10.3-8.1 2.5-3.7 3.7-8.1 3.4-12.8.3-4.1-.6-8.1-2.2-11.9a22.4 22.4 0 00-6.6-7.8 32.9 32.9 0 00-10-4.4c-4.4-.9-8.7-1.2-13.1-1.2h-2.2V57H123v19.7h-9.7V57.3L99.6 57v19.4H77.1v14.1h14.7l-.6 72.8H76.5v14.1H99V196h14.1v-18.7h9.7v18.4h14.1v-18.4h3.4c4.4 0 8.7-.6 13.1-1.6 4.1-.9 8.1-2.5 11.6-5a25 25 0 0011.2-21.8c-.4-6.3-1.9-12-5-16.7zM114 93.5h20.6c1.9 0 3.7.3 5.6.6 1.6.3 3.4.9 5 1.9 1.2.9 2.5 2.2 3.4 3.4a13 13 0 011.2 5.9c.3 3.4-1.2 6.9-3.7 9.1a17.2 17.2 0 01-9.7 2.8H114V93.5zm38.1 59.7c-.9 1.6-2.2 3.1-3.7 4.1s-3.4 1.6-5.3 2.2c-2.2.3-4.1.6-6.2.6h-23.4l.3-27.5h24c4.1-.3 8.1.9 11.6 3.4 3.1 2.8 4.7 6.9 4.4 10.9-.1 2.2-.8 4.4-1.7 6.3z" class="st5"/>
</svg>
