<svg xmlns="http://www.w3.org/2000/svg" width="280" height="282" viewBox="0 0 190 141" fill="none">
<path d="M5 19L65 47.5M5 19L1 74L54 103M5 19L43 1L96.5 22M65 47.5L54 103M65 47.5L96.5 22M54 103L84 72.5L96.5 22" stroke="#DEDEDE"/>
<ellipse cx="29.3239" cy="21.0513" rx="6.5" ry="4" transform="rotate(5 29.3239 21.0513)" fill="#DEDEDE"/>
<ellipse cx="75.3239" cy="22.0513" rx="6.5" ry="4" transform="rotate(5 75.3239 22.0513)" fill="#DEDEDE"/>
<ellipse cx="16.9278" cy="41.7879" rx="6.5" ry="5.36497" transform="rotate(40 16.9278 41.7879)" fill="#DEDEDE"/>
<ellipse cx="104.292" cy="91.1624" rx="6.0094" ry="4.96004" transform="rotate(40 104.292 91.1624)" fill="#DEDEDE"/>
<ellipse cx="155.586" cy="87.0243" rx="6.0094" ry="4.33896" transform="rotate(90.5 155.586 87.0243)" fill="#DEDEDE"/>
<ellipse cx="174.174" cy="72.5408" rx="6.0094" ry="3.62195" transform="rotate(90.5 174.174 72.5408)" fill="#DEDEDE"/>
<ellipse cx="158.891" cy="102.547" rx="6.0094" ry="4.33896" transform="rotate(90.5 158.891 102.547)" fill="#DEDEDE"/>
<ellipse cx="162.48" cy="118.509" rx="6.0094" ry="3.97968" transform="rotate(90 162.48 118.509)" fill="#DEDEDE"/>
<ellipse cx="180.256" cy="103.541" rx="6.0094" ry="3.70409" transform="rotate(89.5 180.256 103.541)" fill="#DEDEDE"/>
<ellipse cx="137.877" cy="69.0959" rx="6.0094" ry="2.44699" transform="rotate(168.5 137.877 69.0959)" fill="#DEDEDE"/>
<ellipse cx="156.877" cy="57.0959" rx="6.0094" ry="2.44699" transform="rotate(168.5 156.877 57.0959)" fill="#DEDEDE"/>
<ellipse cx="130.877" cy="58.0959" rx="6.0094" ry="2.44699" transform="rotate(168.5 130.877 58.0959)" fill="#DEDEDE"/>
<ellipse cx="110.954" cy="68.5313" rx="6.0094" ry="2.44699" transform="rotate(163.277 110.954 68.5313)" fill="#DEDEDE"/>
<ellipse cx="177.04" cy="88.1739" rx="5.64369" ry="3.49105" transform="rotate(89.5 177.04 88.1739)" fill="#DEDEDE"/>
<ellipse cx="121.292" cy="108.162" rx="6.0094" ry="4.96004" transform="rotate(40 121.292 108.162)" fill="#DEDEDE"/>
<ellipse cx="112.292" cy="120.162" rx="6.0094" ry="4.96004" transform="rotate(40 112.292 120.162)" fill="#DEDEDE"/>
<ellipse cx="130.292" cy="93.1624" rx="6.0094" ry="4.96004" transform="rotate(40 130.292 93.1624)" fill="#DEDEDE"/>
<ellipse cx="138.292" cy="125.162" rx="6.0094" ry="4.96004" transform="rotate(40 138.292 125.162)" fill="#DEDEDE"/>
<ellipse cx="29.9278" cy="63.7879" rx="6.5" ry="5.36497" transform="rotate(40 29.9278 63.7879)" fill="#DEDEDE"/>
<ellipse cx="41.9278" cy="84.7879" rx="6.5" ry="5.36497" transform="rotate(40 41.9278 84.7879)" fill="#DEDEDE"/>
<ellipse cx="76.2517" cy="63.6262" rx="6.5" ry="2.97273" transform="rotate(-60.9944 76.2517 63.6262)" fill="#DEDEDE"/>
<path d="M89.5 74.5L140.5 76M89.5 74.5L129 52.5H177M89.5 74.5L105.5 131L156 140M140.5 76L177 52.5M140.5 76L156 140M177 52.5L189 108L156 140" stroke="#DEDEDE"/>
</svg>
