<svg xmlns="http://www.w3.org/2000/svg" viewBox="0 0 256 256" width="512" height="512">
  <defs/>
  <path fill="none" stroke="#dedede" stroke-width="2" d="M9.7 80.8h263.1c1.8 0 3.2 1.3 3.2 3v89.5c0 1.6-1.4 3-3.2 3H9.7c-1.8 0-3.2-1.4-3.2-3V83.7c0-1.6 1.4-3 3.2-3z"/>
  <g fill="#dedede">
    <path d="M38.7 121.4v-14l-4 .5v35.5h3.6l.3-2.7c1.7 2.3 4 3.2 6.8 3.2 6.5 0 10-5.5 10-13.2 0-7.9-2.7-13.1-9.4-13.1a9 9 0 00-7.3 3.8zm5.8 19.3a6.8 6.8 0 01-5.8-3.3v-12.5c1.4-2 3.6-4 6.4-4 4 0 6 3.2 6 9.8 0 6.7-2.4 10-6.6 10zM75 140.5c-4.4 0-7.6-2.9-7.6-9.6 0-6.7 3.2-10 7.5-10 2.3 0 4.4.8 6.6 2.3l2-2.7c-2.4-2-5.3-3-8.5-3-7.6 0-12 5.8-12 13.4 0 7.9 4.4 13 12 13 3 0 6.3-1.1 8.5-3l-2-2.6c-1.9 1.2-4 2.2-6.5 2.2zM105.5 140.1v-29.8h-3.6l-9.8 6.2 1.7 2.8 7.6-4.6v25.4h-8.1v3.3h19V140zM129.5 117.6c-6.3 0-9.7 5.6-9.7 13.2 0 8 2.6 13.1 9.3 13.1 2.8 0 5.3-1 7.2-3.7v12.9l4 .5V118H137l-.4 2.8a8.6 8.6 0 00-7-3.3zm1 3.2c2.4 0 4.4 1.2 5.8 3.3v12.6c-1.4 2-3.5 3.9-6.3 3.9-4 0-5.8-3.3-5.8-9.8 0-6.7 2.1-10 6.3-10zM155.2 139.7c0 2.4 1.9 4.2 4.3 4.2s4.2-1.8 4.2-4.2c0-2.4-1.8-4.2-4.2-4.2a4.2 4.2 0 00-4.3 4.2zM184 139.7c0 2.4 1.9 4.2 4.3 4.2s4.2-1.8 4.2-4.2c0-2.4-1.8-4.2-4.2-4.2a4.2 4.2 0 00-4.3 4.2zM212.8 139.7c0 2.4 1.9 4.2 4.3 4.2s4.2-1.8 4.2-4.2c0-2.4-1.8-4.2-4.2-4.2a4.2 4.2 0 00-4.3 4.2z"/>
  </g>
</svg>
