<?xml version="1.0" encoding="utf-8"?>
<svg xmlns="http://www.w3.org/2000/svg" xml:space="preserve" id="Layer_1" x="0" y="0" version="1.1" viewBox="0 0 1077.2 113.4">
  <style>
    .st1{fill:#fff}.st2{enable-background:new}
  </style>
  <path fill="#e01f29" fill-rule="evenodd" d="M497.4 7h93.7v93.7h-93.7z" clip-rule="evenodd"/>
  <path d="M575.5 63.3h-21.9v21.8h-18.7V63.3H513V44.5h21.9V22.6h18.7v21.9h21.9z" class="st1"/>
  <g class="st2">
    <path d="M52.9 24.2c3.6 1.5 7.4 3.9 11.4 7.3l-7 8.4C53.8 37 50.9 35 48.4 34s-5.3-1.5-8.7-1.5c-6.8 0-11.2 3.1-11.2 7.5 0 3.1 2.1 4.7 5.8 5.9 1.9.6 4.9 1.5 9 2.4C59 52.1 64.8 55.5 65.1 66c0 11.6-9.3 19.8-24.1 19.8-5.4 0-10-.9-14.1-2.6-4-1.6-8.4-4.6-13-8.7l7.2-8.5c4 3.5 7.5 6 10.4 7.3 2.8 1.3 6 2 9.7 2 7.1 0 11.9-3.2 11.9-8.4 0-3.2-2.1-5-5.3-6.1-1.6-.5-4-1.1-7.2-1.8l-2.9-.7c-16.3-3.9-21-8.4-21-18.1C16.7 30 26.1 22 39.9 22c5.1.1 9.4.7 13 2.2z" class="st1"/>
  </g>
  <g class="st2">
    <path d="m132.5 40.4-12.2 44h-13.2l-3.3-11.9c-1.5-5.4-2.8-11.3-4.3-17.9-1.4 6.8-2.7 12.8-4 17.9l-3.1 11.9H79.1l-12.2-44h11.8l3.5 14.4c1.1 4.4 2.5 10.8 4.2 19.4 1.6-7.6 3.1-14.2 4.5-19.4l3.8-14.4H105l3.8 14.4c1.5 5.5 2.9 12 4.5 19.6 1.6-8.2 3-14.7 4.2-19.6l3.5-14.4h11.5zM149.7 33.9h-11.2V23.4h11.2v10.5zm0 50.5h-11.2V40.5h11.2v43.9zM195.2 45.9l-6 7.3c-5.1-4-8.4-5.2-13.1-5.2-4.5 0-7.4 1.7-7.4 4.4 0 1.8 1.4 2.7 3.8 3.4 1.2.3 3.3.9 6.4 1.5 12.4 2.7 17 5.8 17 14 0 8.6-7.1 14.3-18.8 14.3-8.3 0-14.2-2.1-21.2-8.3l6.4-7.2c3.2 2.6 5.7 4.3 7.9 5.2 2.1.9 4.5 1.4 7.1 1.4 4.5 0 7.6-1.6 7.6-4.6 0-2.3-2-3.5-4.4-4.2-1.2-.3-3.3-.8-6.4-1.5-12.5-2.7-16.1-5.8-16.1-13.7 0-7.6 6.8-13.7 18.3-13.7 7.5.1 12.8 1.9 18.9 6.9z" class="st1"/>
  </g>
  <g class="st2">
    <path d="m238.8 45.9-6 7.3c-5.1-4-8.4-5.2-13.1-5.2-4.5 0-7.4 1.7-7.4 4.4 0 1.8 1.4 2.7 3.8 3.4 1.2.3 3.3.9 6.4 1.5 12.4 2.7 17 5.8 17 14 0 8.6-7.1 14.3-18.8 14.3-8.3 0-14.2-2.1-21.2-8.3l6.4-7.2c3.2 2.6 5.7 4.3 7.9 5.2 2.1.9 4.5 1.4 7.1 1.4 4.5 0 7.6-1.6 7.6-4.6 0-2.3-2-3.5-4.4-4.2-1.2-.3-3.3-.8-6.4-1.5-12.5-2.7-16.1-5.8-16.1-13.7 0-7.6 6.8-13.7 18.3-13.7 7.6.1 12.8 1.9 18.9 6.9z" class="st1"/>
  </g>
  <g class="st2">
    <path d="M328.5 53.7v30.7h-11.2V57.1c0-5.2-2.1-8.4-6.9-8.4-4.9 0-7.7 3.6-7.7 8.8v27h-11.2V57.1c0-5.6-2.3-8.4-6.9-8.4-4.9 0-7.7 3.6-7.7 8.8v27h-11.2v-44h10.4v4.9c2.6-4.2 6.8-6.4 12.5-6.4 5.6 0 9.8 2.3 12.2 6.4 3-4.3 7.4-6.4 13.1-6.4 9.2.1 14.6 5.7 14.6 14.7zM376.5 54.8v29.6h-10v-4.6c-2.7 3.8-7.5 6-14.2 6-9 0-15.7-4.2-15.7-12.5 0-9.3 7.3-13.4 19-15.5l10.3-1.9v-1c0-4.2-3.1-6.7-8.2-6.7-2.7 0-5.1.5-6.9 1.6-1.8 1.1-4.1 2.9-6.8 5.5l-7-6.4c5.6-6.6 12-9.9 20.5-9.9 12.2.1 19 6.2 19 15.8zm-10.6 11.7V64l-7.4 1.5c-7.5 1.6-11 3.3-11 7 0 2.7 2.5 4.4 6.7 4.4 6.4 0 11.7-3.2 11.7-10.4zM427.9 23.4v61h-10.4v-5.8c-3.2 4.7-7.8 7-14 7-11.2 0-19.4-9.3-19.4-23.2 0-14.1 8.3-23.2 19.5-23.2 5.7 0 10.1 1.9 13.1 5.8V23.4h11.2zm-10.7 39.1c0-8.3-4.5-13.5-11-13.5-6.4 0-10.7 5.2-10.7 13.5 0 8.2 4.1 13.6 10.6 13.6s11.1-5.4 11.1-13.6zM464.9 75c1.7-.9 3.9-2.4 6.7-4.7l6.3 6.9c-6.2 6.3-12.1 8.6-19.6 8.6-14.2 0-23-9.1-23-23.1 0-13.7 8.4-23.6 22-23.6 13.1 0 20.5 8.2 20.5 21.9 0 1.6-.1 3.1-.2 4.4h-31.5c1 6.8 5.1 11 12.4 11 2.6-.1 4.6-.5 6.4-1.4zm-18.4-17.7H467c-.4-5.9-4-9.5-10-9.5-5.7 0-9.2 3.6-10.5 9.5z" class="st1"/>
  </g>
  <g class="st2">
    <path d="M649.7 62c0 13.1-8.7 22.3-20.9 22.3S608 75.1 608 62s8.7-22.3 20.8-22.3c12.2 0 20.9 9.2 20.9 22.3zm-34.2 0c0 9.6 5.1 16.1 13.3 16.1 8.1 0 13.4-6.5 13.4-16.1 0-9.6-5.2-16.1-13.4-16.1s-13.3 6.5-13.3 16.1zM698.6 61.9c0 13.3-7.8 22.3-18.6 22.3-6.3 0-11-2.2-14-6.7v21h-7.4V40.9h6.9v6.6c3.1-5.2 7.9-7.7 14.4-7.7 10.9 0 18.7 9 18.7 22.1zm-7.6 0c0-9.5-4.7-15.9-12.2-15.9-7.8 0-13.1 6-13.1 15.9 0 10 5.3 16 13.1 16 7.4 0 12.2-6.3 12.2-16z" class="st1"/>
  </g>
  <g class="st2">
    <path d="M744.9 75.6c-6.1 6.4-11.2 8.8-18.4 8.8-12.8 0-20.8-8.8-20.8-22.1 0-13.2 8-22.6 20.2-22.6 12 0 19 7.7 19 20.4 0 1.1-.1 2.2-.2 3.3H713c.4 8.6 5.1 14.9 13.6 14.9 2.7 0 4.9-.5 6.9-1.5s4.3-2.8 7.1-5.5l4.3 4.3zm-31.7-17.8h24.4c-.3-7.5-4.6-12.2-11.8-12.2-7 0-11.5 4.4-12.6 12.2z" class="st1"/>
  </g>
  <g class="st2">
    <path d="M789.4 54.2v28.9H782V56.5c0-6.9-3.4-10.6-9.7-10.6-6.1 0-10.9 4.7-10.9 11v26.2H754V40.9h6.9v5.5c2.7-4.4 7.5-6.7 13.3-6.7 9.9 0 15.2 6.2 15.2 14.5z" class="st1"/>
  </g>
  <g class="st2">
    <path d="m852 45.9-4 5c-5.2-4-8.5-5.2-13.3-5.2-5.6 0-9.3 2.6-9.3 6.3.5 3.8 2.3 4.2 11.3 6.3 11.4 2.7 16 5.8 16 13 0 7.9-6.7 13.1-16.9 13.1-7.5 0-12.9-2.1-19.5-7.9l4.4-4.8c6.1 5.1 10 6.6 15.2 6.6 5.6 0 9.6-2.6 9.6-6.7 0-4.2-3.6-5.6-11.8-7.4-11.8-2.7-15.1-4.7-15.4-11.9 0-7.4 6.7-12.5 16.4-12.5 6.9-.1 11.7 1.6 17.3 6.1z" class="st1"/>
  </g>
  <g class="st2">
    <path d="M900.7 62c0 13.1-8.7 22.3-20.9 22.3S859 75.1 859 62s8.7-22.3 20.8-22.3c12.2 0 20.9 9.2 20.9 22.3zm-34.2 0c0 9.6 5.1 16.1 13.3 16.1 8.1 0 13.4-6.5 13.4-16.1 0-9.6-5.2-16.1-13.4-16.1s-13.3 6.5-13.3 16.1zM944.2 40.9v42.2h-6.9v-5.2c-2.5 4.1-7 6.4-12.8 6.4-10.2 0-15-5.6-15-13.8V40.9h7.4v27.8c0 6.1 3.1 9.3 8.8 9.3 6.5 0 11.1-4 11.1-11.3V40.9h7.4zM979.8 41.7l-1.4 6.2c-2.1-.6-3.9-.9-5.5-.9-5.8 0-9.9 5.2-9.9 13.5v22.7h-7.4V40.9h6.9v6.4c2-4.2 5.7-6.9 10.5-6.9 2.1.1 4.4.5 6.8 1.3z" class="st1"/>
  </g>
  <g class="st2">
    <path d="M1014.1 52.2c-4.5-4.8-7.9-6.4-12.3-6.4-4.1 0-7.3 1.5-9.4 4.7-2.2 3.2-3.3 7-3.3 11.4s1.1 8.2 3.3 11.3c2.2 3.2 5.4 4.7 9.6 4.7 4.5 0 7.7-1.6 12.6-7l4.8 4.1c-5.5 6.8-10.3 9.2-17.4 9.2-12.4 0-20.5-8.8-20.5-22.3 0-13.4 8.3-22.3 20.5-22.3 6.9 0 11.8 2.2 16.9 8.1l-4.8 4.5z" class="st1"/>
  </g>
  <g class="st2">
    <path d="M1062.8 75.6c-6.1 6.4-11.2 8.8-18.4 8.8-12.8 0-20.8-8.8-20.8-22.1 0-13.2 8-22.6 20.2-22.6 12 0 19 7.7 19 20.4 0 1.1-.1 2.2-.2 3.3h-31.7c.4 8.6 5.1 14.9 13.6 14.9 2.7 0 4.9-.5 6.9-1.5s4.3-2.8 7.1-5.5l4.3 4.3zm-31.7-17.8h24.4c-.3-7.5-4.6-12.2-11.8-12.2-7 0-11.5 4.4-12.6 12.2z" class="st1"/>
  </g>
</svg>
